<svg xmlns="http://www.w3.org/2000/svg" width="120.929" height="40.265" viewBox="0 0 120.929 40.265"><defs><style>.a{fill:#e51e27;}.b{stroke:#000;stroke-miterlimit:10;stroke-width:0.93px;}.c{fill:#7f8080;}</style></defs><g transform="translate(-1996.278 -2427.72)"><g transform="translate(1996.278 2427.72)"><path class="a" d="M146.65,90.6a2.109,2.109,0,0,0-2.973,0l-9.757,9.757,2.973,2.968,9.757-9.757a2.109,2.109,0,0,0,0-2.968" transform="translate(-85.406 -78.373)"/><path d="M52.963,93.175a1.982,1.982,0,0,1-1.977,1.977,6.015,6.015,0,0,0-6.015,6.009v7.96a1.961,1.961,0,1,1-3.922,0v-7.96a9.942,9.942,0,0,1,9.937-9.931,1.956,1.956,0,0,1,1.977,1.945" transform="translate(-41.05 -78.961)"/><path d="M83.293,101.139a1.956,1.956,0,0,1-1.987,1.945H67.658a6.046,6.046,0,0,0,5.7,4.08,7.817,7.817,0,0,0,4.433-1.281,1.888,1.888,0,0,1,2.6.907,2.094,2.094,0,0,1-.954,2.636,9.657,9.657,0,0,1-6.083,1.7,9.931,9.931,0,1,1,0-19.863,9.75,9.75,0,0,1,9.931,9.926M67.658,99.209H79.091a5.776,5.776,0,0,0-5.73-4.038,6.067,6.067,0,0,0-5.7,4.038" transform="translate(-51.633 -78.975)"/><path d="M123.556,112.353a2.072,2.072,0,0,1-1.481-.622l-15.635-15.6a2.109,2.109,0,0,1,2.968-2.968l15.635,15.624a2.109,2.109,0,0,1-1.487,3.59" transform="translate(-72.071 -79.647)"/><path d="M104.566,103.74a2.109,2.109,0,0,1-1.481-3.59l25.234-25.2a2.109,2.109,0,0,1,2.973,2.963l-25.24,25.234a2.109,2.109,0,0,1-1.487.622" transform="translate(-70.439 -71.034)"/><path class="a" d="M75.452,76.54a20.975,20.975,0,0,1,6.716-5.878,21.286,21.286,0,0,1,8.745-2.636,22.14,22.14,0,0,1,9.23,1.223A22.757,22.757,0,0,1,108.22,74.3h0a2.109,2.109,0,1,1-3.073,2.857,18.977,18.977,0,0,0-14.185-6.853,19.568,19.568,0,0,0-8.2,1.545,20.364,20.364,0,0,0-6.985,4.96.216.216,0,0,1-.306,0,.221.221,0,0,1,0-.285" transform="translate(-57.303 -67.955)"/><path class="b" d="M270.87,101.417v7.86a1.935,1.935,0,0,1-2.008,2,2.109,2.109,0,0,1-1.924-2,8.735,8.735,0,0,1-5.936,2,9.85,9.85,0,0,1-10.142-9.863A10.079,10.079,0,0,1,261,91.27,9.849,9.849,0,0,1,270.87,101.417Zm-3.932,0A6.062,6.062,0,0,0,261,95.2a6.326,6.326,0,0,0-6.215,6.215A6.062,6.062,0,0,0,261,107.353a5.8,5.8,0,0,0,5.936-5.936Z" transform="translate(-167.598 -79.507)"/><path class="c" d="M100.77,138.86h1.065a2.1,2.1,0,0,1,.419.04.917.917,0,0,1,.33.139.725.725,0,0,1,.234.264.927.927,0,0,1,.086.419.989.989,0,0,1-.079.419.715.715,0,0,1-.221.27.949.949,0,0,1-.33.142,1.859,1.859,0,0,1-.419.043H101.4V141.7h-.627Zm.627,1.2h.419a.861.861,0,0,0,.162,0,.484.484,0,0,0,.142-.053.3.3,0,0,0,.1-.105.33.33,0,0,0,.04-.168.3.3,0,0,0-.049-.175.393.393,0,0,0-.129-.1.716.716,0,0,0-.175-.046h-.514Z" transform="translate(-56.476 -101.527)"/><path class="c" d="M108.225,140.167a1.563,1.563,0,0,1,.115-.62,1.381,1.381,0,0,1,.33-.471,1.52,1.52,0,0,1,.468-.284,1.847,1.847,0,0,1,.617-.1,1.827,1.827,0,0,1,.613.1,1.45,1.45,0,0,1,.485.3,1.342,1.342,0,0,1,.33.471,1.622,1.622,0,0,1,.115.62,1.606,1.606,0,0,1-.115.617,1.319,1.319,0,0,1-.33.472,1.352,1.352,0,0,1-.485.3,1.748,1.748,0,0,1-.613.106,1.768,1.768,0,0,1-.617-.106,1.412,1.412,0,0,1-.485-.3,1.349,1.349,0,0,1-.33-.472A1.546,1.546,0,0,1,108.225,140.167Zm.659,0a.989.989,0,0,0,.063.366.841.841,0,0,0,.178.29.8.8,0,0,0,.28.191.9.9,0,0,0,.363.066.913.913,0,0,0,.363-.066.785.785,0,0,0,.277-.191.847.847,0,0,0,.181-.29,1.078,1.078,0,0,0,.063-.366,1.091,1.091,0,0,0-.063-.366.864.864,0,0,0-.181-.293.777.777,0,0,0-.277-.188.913.913,0,0,0-.363-.069.9.9,0,0,0-.363.069.792.792,0,0,0-.28.188.854.854,0,0,0-.178.293,1.015,1.015,0,0,0-.073.366Z" transform="translate(-61.495 -101.413)"/><path class="c" d="M118.16,138.86h.683l.455,1.823h0l.6-1.823h.58l.59,1.87h0l.478-1.87h.636l-.831,2.842h-.561l-.623-1.978h0l-.627,1.978H119Z" transform="translate(-68.185 -101.527)"/><path class="c" d="M131.533,138.86h1.929v.577h-1.319v.531h1.237v.587h-1.237v.58h1.378v.577h-2Z" transform="translate(-77.169 -101.527)"/><path class="c" d="M139.373,138.86h1.1a1.88,1.88,0,0,1,.415.046.946.946,0,0,1,.33.138.709.709,0,0,1,.234.267.9.9,0,0,1,.086.412.838.838,0,0,1-.158.514.725.725,0,0,1-.458.267l.725,1.2h-.758l-.594-1.138h-.31v1.138h-.626Zm.627,1.174h.561a.567.567,0,0,0,.171-.036.3.3,0,0,0,.125-.1.29.29,0,0,0,.049-.181.274.274,0,0,0-.155-.27.559.559,0,0,0-.158-.046,1.5,1.5,0,0,0-.171,0H140Z" transform="translate(-82.446 -101.527)"/><path class="c" d="M147.61,138.86h1.929v.577H148.22v.531h1.237v.587h-1.223v.58h1.378v.577h-2Z" transform="translate(-87.997 -101.527)"/><path class="c" d="M155.443,138.86h.94a2.785,2.785,0,0,1,.659.076,1.448,1.448,0,0,1,.534.247,1.2,1.2,0,0,1,.363.442,1.5,1.5,0,0,1,.135.659,1.381,1.381,0,0,1-.142.6,1.319,1.319,0,0,1-.353.439,1.527,1.527,0,0,1-.511.274,2.032,2.032,0,0,1-.607.092H155.44Zm.626,2.265h.33a1.75,1.75,0,0,0,.4-.046.906.906,0,0,0,.33-.145.7.7,0,0,0,.214-.27.936.936,0,0,0,.079-.406.8.8,0,0,0-.079-.366.723.723,0,0,0-.211-.254.97.97,0,0,0-.31-.152,1.4,1.4,0,0,0-.376-.049h-.369Z" transform="translate(-93.269 -101.527)"/><path class="c" d="M168.78,138.86h1.062a2.312,2.312,0,0,1,.369.026.99.99,0,0,1,.33.1.62.62,0,0,1,.241.221.659.659,0,0,1,.092.373.613.613,0,0,1-.132.4.768.768,0,0,1-.359.228h0a.78.78,0,0,1,.257.079.742.742,0,0,1,.2.148.716.716,0,0,1,.125.211.725.725,0,0,1,.043.257.705.705,0,0,1-.1.376.771.771,0,0,1-.251.244,1.179,1.179,0,0,1-.33.132,1.82,1.82,0,0,1-.376.04h-1.167Zm.627,1.134h.455a.66.66,0,0,0,.142,0,.48.48,0,0,0,.125-.053.293.293,0,0,0,.092-.1.31.31,0,0,0,.033-.142.29.29,0,0,0-.036-.148.254.254,0,0,0-.1-.089.364.364,0,0,0-.138-.046.754.754,0,0,0-.148,0h-.425Zm0,1.177h.564a.559.559,0,0,0,.145-.016.379.379,0,0,0,.135-.056.307.307,0,0,0,.139-.26.251.251,0,0,0-.053-.162.3.3,0,0,0-.125-.1.638.638,0,0,0-.165-.043.992.992,0,0,0-.165,0h-.475Z" transform="translate(-102.244 -101.526)"/><path class="c" d="M176.822,140.489l-1.072-1.629h.781l.6,1.062.636-1.062h.742l-1.065,1.629V141.7h-.626Z" transform="translate(-106.938 -101.527)"/><path class="c" d="M191.157,141.353a2.282,2.282,0,0,1-.577.208,2.943,2.943,0,0,1-.617.066,1.76,1.76,0,0,1-.613-.106,1.365,1.365,0,0,1-.8-.772,1.606,1.606,0,0,1-.115-.617,1.623,1.623,0,0,1,.115-.62,1.389,1.389,0,0,1,.33-.472,1.451,1.451,0,0,1,.485-.3,1.84,1.84,0,0,1,.613-.1,2.239,2.239,0,0,1,.63.082,1.229,1.229,0,0,1,.5.28l-.442.485a.841.841,0,0,0-.287-.2,1.042,1.042,0,0,0-.406-.069.923.923,0,0,0-.363.069.779.779,0,0,0-.277.188.807.807,0,0,0-.178.293,1.014,1.014,0,0,0-.063.366.988.988,0,0,0,.063.366.821.821,0,0,0,.455.481.923.923,0,0,0,.363.066,1.137,1.137,0,0,0,.356-.046,1.23,1.23,0,0,0,.237-.092v-.462h-.511v-.58h1.111Z" transform="translate(-115.47 -101.379)"/><path class="c" d="M198.69,138.86h.627v2.265h1.161v.577H198.69Z" transform="translate(-122.37 -101.527)"/><path class="c" d="M204.94,140.133a1.623,1.623,0,0,1,.115-.62,1.382,1.382,0,0,1,.33-.471,1.5,1.5,0,0,1,.488-.3,1.889,1.889,0,0,1,1.227,0,1.5,1.5,0,0,1,.488.3,1.381,1.381,0,0,1,.33.471,1.622,1.622,0,0,1,.115.62,1.605,1.605,0,0,1-.115.617,1.348,1.348,0,0,1-.33.472,1.394,1.394,0,0,1-.488.3,1.837,1.837,0,0,1-1.227,0,1.4,1.4,0,0,1-.488-.3,1.348,1.348,0,0,1-.33-.472,1.605,1.605,0,0,1-.115-.617Zm.66,0a.989.989,0,0,0,.063.366.894.894,0,0,0,.178.29.832.832,0,0,0,.28.191,1.029,1.029,0,0,0,.725,0,.831.831,0,0,0,.28-.191.894.894,0,0,0,.178-.29,1.079,1.079,0,0,0,.063-.366,1.092,1.092,0,0,0-.063-.366.91.91,0,0,0-.178-.293.821.821,0,0,0-.28-.188.989.989,0,0,0-.725,0,.821.821,0,0,0-.28.188.911.911,0,0,0-.178.293,1.016,1.016,0,0,0-.073.366Z" transform="translate(-126.583 -101.379)"/><path class="c" d="M215.77,138.86h1.065a2.312,2.312,0,0,1,.369.026.99.99,0,0,1,.33.1.619.619,0,0,1,.241.221.66.66,0,0,1,.092.373.613.613,0,0,1-.132.4.758.758,0,0,1-.356.228h0a.788.788,0,0,1,.254.079.741.741,0,0,1,.2.148.716.716,0,0,1,.125.211.726.726,0,0,1,.043.257.705.705,0,0,1-.1.376.794.794,0,0,1-.247.244,1.256,1.256,0,0,1-.33.132,1.881,1.881,0,0,1-.379.04H215.78Zm.626,1.134h.455a.66.66,0,0,0,.142,0,.555.555,0,0,0,.129-.053.33.33,0,0,0,.089-.1.274.274,0,0,0,.033-.142.261.261,0,0,0-.036-.148.254.254,0,0,0-.1-.089.367.367,0,0,0-.135-.046.8.8,0,0,0-.148,0H216.4Zm0,1.177h.564a.559.559,0,0,0,.145-.016.379.379,0,0,0,.135-.056.306.306,0,0,0,.1-.105.277.277,0,0,0,.04-.155.25.25,0,0,0-.053-.162.3.3,0,0,0-.125-.1.638.638,0,0,0-.165-.043.992.992,0,0,0-.165,0H216.4Z" transform="translate(-133.867 -101.526)"/><path class="c" d="M224.237,138.86h.518l1.237,2.842h-.709l-.244-.6h-1.1l-.234.6H223Zm.241.828-.33.884h.692Z" transform="translate(-138.737 -101.527)"/><path class="c" d="M233.25,138.86h.626v2.265h1.161v.577H233.25Z" transform="translate(-145.628 -101.527)"/><path class="c" d="M244.14,138.86h.518l1.237,2.842h-.706l-.244-.6h-1.1l-.237.6h-.692Zm.241.828-.346.884h.7Z" transform="translate(-152.136 -101.527)"/><path class="c" d="M254.621,139.451a.557.557,0,0,0-.228-.171.7.7,0,0,0-.31-.063.762.762,0,0,0-.33.069.789.789,0,0,0-.264.188.955.955,0,0,0-.171.293,1.015,1.015,0,0,0-.059.366.989.989,0,0,0,.059.366.939.939,0,0,0,.171.29.794.794,0,0,0,.254.191.735.735,0,0,0,.33.066.679.679,0,0,0,.587-.3l.521.389a1.092,1.092,0,0,1-.458.373,1.441,1.441,0,0,1-.57.122,1.76,1.76,0,0,1-.613-.106,1.352,1.352,0,0,1-.485-.3,1.319,1.319,0,0,1-.33-.471,1.606,1.606,0,0,1-.115-.617,1.622,1.622,0,0,1,.115-.62,1.342,1.342,0,0,1,.33-.472,1.45,1.45,0,0,1,.485-.3,1.84,1.84,0,0,1,.613-.1,1.65,1.65,0,0,1,.251.02,1.353,1.353,0,0,1,.257.073,1.052,1.052,0,0,1,.452.33Z" transform="translate(-158.661 -101.379)"/><path class="c" d="M263.231,139.485a.581.581,0,0,0-.228-.171.728.728,0,0,0-.313-.063.785.785,0,0,0-.33.069.774.774,0,0,0-.26.188.9.9,0,0,0-.175.293,1.092,1.092,0,0,0-.059.366,1.077,1.077,0,0,0,.059.366.942.942,0,0,0,.171.29.8.8,0,0,0,.254.191.736.736,0,0,0,.33.066.722.722,0,0,0,.33-.079.689.689,0,0,0,.244-.224l.538.389a1.052,1.052,0,0,1-.458.373,1.418,1.418,0,0,1-.57.122,1.76,1.76,0,0,1-.613-.106,1.365,1.365,0,0,1-.8-.772,1.605,1.605,0,0,1-.115-.617,1.622,1.622,0,0,1,.115-.62,1.388,1.388,0,0,1,.33-.472,1.451,1.451,0,0,1,.468-.284,1.839,1.839,0,0,1,.613-.1,1.713,1.713,0,0,1,.254.02,1.506,1.506,0,0,1,.257.073.945.945,0,0,1,.241.129.892.892,0,0,1,.208.195Z" transform="translate(-164.641 -101.413)"/><path class="c" d="M270.31,138.86h1.932v.577h-1.319v.531h1.263v.587h-1.233v.58h1.378v.577h-2Z" transform="translate(-170.727 -101.527)"/><path class="c" d="M278.23,138.86h.627v2.265h1.161v.577H278.23Z" transform="translate(-176.035 -101.527)"/><path class="c" d="M285,138.86h1.932v.577h-1.319v.531h1.233v.587h-1.233v.58h1.378v.577H285Z" transform="translate(-180.573 -101.527)"/><path class="c" d="M292.86,138.86h1.1a1.839,1.839,0,0,1,.412.043.923.923,0,0,1,.33.138.683.683,0,0,1,.234.267.858.858,0,0,1,.089.412.838.838,0,0,1-.139.5.725.725,0,0,1-.458.267l.722,1.2h-.758l-.6-1.138h-.31v1.138h-.623Zm.623,1.174h.551A.525.525,0,0,0,294.2,140a.267.267,0,0,0,.178-.277.293.293,0,0,0-.043-.171.329.329,0,0,0-.112-.1.558.558,0,0,0-.158-.046h-.584Z" transform="translate(-185.841 -101.526)"/><path class="c" d="M301.06,138.86h1.932v.577h-1.319v.531h1.233v.587H301.7v.58h1.378v.577h-2Z" transform="translate(-191.337 -101.527)"/><path class="c" d="M309.006,140.245l-.94-1.355h.788l.607.989.58-.989h.758l-.917,1.345,1.025,1.5h-.788l-.692-1.144-.676,1.144H308Z" transform="translate(-195.989 -101.547)"/><path d="M9.134-29.883l3.523-11.854h5.46L10.455-19.72l-.423,1A5.809,5.809,0,0,1,4.4-14.981a8.009,8.009,0,0,1-2.255-.335v-3.857l.775.018a4.188,4.188,0,0,0,2.158-.44,2.893,2.893,0,0,0,1.118-1.462l.6-1.568L.116-41.737H5.594Z" transform="translate(102.812 47.147)"/><g transform="translate(64.47 4.441)"><g transform="translate(0.001)"><path class="b" d="M308.53,98.86V74.17a1.88,1.88,0,1,1,3.759,0V98.86a1.88,1.88,0,1,1-3.759,0Z" transform="translate(-308.53 -72.29)"/></g><path class="b" d="M18.177,9.218v7.139a1.757,1.757,0,0,1-1.824,1.82,1.915,1.915,0,0,1-1.748-1.82,7.934,7.934,0,0,1-5.392,1.82A8.947,8.947,0,0,1,0,9.218,9.155,9.155,0,0,1,9.213,0,8.947,8.947,0,0,1,18.177,9.218Zm-3.572,0A5.507,5.507,0,0,0,9.213,3.572,5.746,5.746,0,0,0,3.568,9.218a5.507,5.507,0,0,0,5.645,5.392A5.267,5.267,0,0,0,14.6,9.218Z" transform="matrix(-1, 0.017, -0.017, -1, 18.492, 18.2)"/></g></g></g></svg>